<?xml version="1.0" encoding="utf-8"?>
<!-- Generator: Adobe Illustrator 22.1.0, SVG Export Plug-In . SVG Version: 6.00 Build 0)  -->
<svg version="1.1" id="Layer_1" xmlns="http://www.w3.org/2000/svg" xmlns:xlink="http://www.w3.org/1999/xlink" x="0px" y="0px"
	 viewBox="0 0 375 90" style="enable-background:new 0 0 375 90;" xml:space="preserve">
<style type="text/css">
	.st0{fill:#231F20;}
	.st1{fill:url(#SVGID_1_);}
</style>
<title>HALLEY_RISE-logo</title>
<metadata><?xpacket begin="﻿" id="W5M0MpCehiHzreSzNTczkc9d"?>
<x:xmpmeta xmlns:x="adobe:ns:meta/" x:xmptk="Adobe XMP Core 5.6-c143 79.161356, 2017/09/07-01:11:22        ">
   <rdf:RDF xmlns:rdf="http://www.w3.org/1999/02/22-rdf-syntax-ns#">
      <rdf:Description rdf:about=""
            xmlns:dc="http://purl.org/dc/elements/1.1/">
         <dc:title>
            <rdf:Alt>
               <rdf:li xml:lang="x-default">HALLEY_RISE-logo</rdf:li>
            </rdf:Alt>
         </dc:title>
      </rdf:Description>
   </rdf:RDF>
</x:xmpmeta>
                                                                                                    
                                                                                                    
                                                                                                    
                                                                                                    
                                                                                                    
                                                                                                    
                                                                                                    
                                                                                                    
                                                                                                    
                                                                                                    
                                                                                                    
                                                                                                    
                                                                                                    
                                                                                                    
                                                                                                    
                                                                                                    
                                                                                                    
                                                                                                    
                                                                                                    
                                                                                                    
                           
<?xpacket end="w"?></metadata>
<g>
	<polygon class="st0" points="34.3,75 38,75 38,42.4 38,39.7 38,11.6 34.3,11.6 	"/>
	<polygon class="st0" points="59.8,11.6 56.1,11.6 56.1,39.7 56.1,42.4 56.1,75 59.8,75 	"/>
	<path class="st0" d="M69,74.9h3.4l3.8-20.8h14.2l3.8,20.8h3.6L86,11.5h-5.2L69,74.9z M90,51.4H76.7L83.4,15L90,51.4z"/>
	<polygon class="st0" points="126.9,75 126.9,72.3 109.8,72.3 109.8,11.6 106.1,11.6 106.1,72.3 106.1,75 109.8,75 	"/>
	<polygon class="st0" points="136.5,11.6 132.8,11.6 132.8,72.3 132.8,75 136.5,75 153.6,75 153.6,72.3 136.5,72.3 	"/>
	<polygon class="st0" points="163.2,42.4 178.5,42.4 178.5,39.7 163.2,39.7 163.2,14.3 182.2,14.3 182.2,11.6 159.5,11.6 159.5,75 
		162.3,75 163.2,75 182.6,75 182.6,72.3 163.2,72.3 	"/>
	<polygon class="st0" points="201.6,46.9 213.8,11.6 210.2,11.6 199.8,41.7 189.4,11.6 185.7,11.6 198,46.9 198,75 201.6,75 	"/>
	<path class="st0" d="M273.8,11.6h-7V75h7V11.6z"/>
	<path class="st0" d="M232,11.7v63.2h6.8V45.8h3.4l10.1,29h8.2c-0.5-1.4-11.5-29.2-11.5-29.2c1.8-0.8,3.5-1.8,5.1-3
		c2.1-1.8,3.3-5,3.4-8.4c0.2-4.6,0.6-6.1,0.4-10.7c-0.2-6-4.3-11.2-9.9-12C242.8,11.2,232,11.7,232,11.7z M250.1,22.4
		c0.5,0.9,0.7,1.9,0.7,2.9c0.3,3.1,0.2,6.3-0.4,9.4c-0.3,1.6-1.3,3.1-2.7,4c-1,0.7-2.3,1.1-3.5,1.1h-5.3l-0.2-21.3
		c2.4-0.2,4.8-0.1,7.2,0.2C247.8,19.3,249.3,20.6,250.1,22.4z"/>
	<path class="st0" d="M335.2,11.6c-3.7,0-7.4,0-11,0h-7.6v28.3c0,9.3,0,18.7,0,28v7h24v-6.8h-16.6V45.3h12.5v-6.9h-12.5v-20h16.1
		v-6.8H335.2z"/>
	<path class="st0" d="M282.5,22.5c-1.2,7.4,1,13.7,6.6,18.8c3,2.7,6.4,5.1,9,8.2c3.4,4.3,4.5,10,2.8,15.2c-0.4,1.1-2.2,4.4-4.8,4.4
		c-4.8,0.1-6.2-4.3-6.6-6c-0.6-2.2-0.5-8.3-0.5-8.3h-4.4H282c0,0.1-0.6,9.8,2.4,14.9c4.2,7.2,11,7.2,15.9,5.6
		c5.5-1.8,7.9-6.8,8.7-12.1c1.2-8.6-1.3-15.9-7.9-21.6c-2.8-2.4-5.6-4.8-8.3-7.4c-3.4-3.4-4.1-9.4-2-13.6c0.8-1.9,2.7-3.1,4.8-2.9
		c7.1,0.1,5.4,12.8,5.6,12.8l7.3,0.1c0,0,0.6-8-2.2-13.4c-1.8-3.8-5.6-6.2-9.8-6.3C289.1,10.3,283.7,14.9,282.5,22.5z"/>
	
		<linearGradient id="SVGID_1_" gradientUnits="userSpaceOnUse" x1="154.1392" y1="84.818" x2="103.9592" y2="55.158" gradientTransform="matrix(1 4.000000e-02 4.000000e-02 -1 -104.24 115.2354)">
		<stop  offset="0" style="stop-color:#FFB607"/>
		<stop  offset="5.000000e-02" style="stop-color:#FFBD06;stop-opacity:0.97"/>
		<stop  offset="0.32" style="stop-color:#FFE100;stop-opacity:0.79"/>
		<stop  offset="1" style="stop-color:#FFE100;stop-opacity:0"/>
	</linearGradient>
	<path class="st1" d="M58.6,30.6L0.9,56.3v12.8l62.8-29.6c2.4-1.4,3.2-4.6,1.8-7c-0.9-1.5-2.4-2.4-4.1-2.5
		C60.4,30,59.5,30.2,58.6,30.6"/>
</g>
</svg>
