<svg id="Layer_1" data-name="Layer 1" xmlns="http://www.w3.org/2000/svg" xmlns:xlink="http://www.w3.org/1999/xlink" viewBox="0 0 376.77 93.02"><defs><style>.cls-1{fill:#231f20;}.cls-2{fill:url(#linear-gradient);}</style><linearGradient id="linear-gradient" x1="135.94" y1="24.13" x2="85.76" y2="53.79" gradientTransform="matrix(1, 0.04, -0.04, 1, -80.72, 5.16)" gradientUnits="userSpaceOnUse"><stop offset="0" stop-color="#ffb607"/><stop offset="0.05" stop-color="#ffbd06" stop-opacity="0.97"/><stop offset="0.32" stop-color="#ffe100" stop-opacity="0.79"/><stop offset="1" stop-color="#ffe100" stop-opacity="0"/></linearGradient></defs><title>HALLEY_RISE-logo</title><polygon class="cls-1" points="35.16 73.02 38.84 73.02 38.84 40.41 38.84 37.71 38.84 9.59 35.16 9.59 35.16 73.02"/><polygon class="cls-1" points="60.68 9.59 56.99 9.59 56.99 37.71 56.99 40.41 56.99 73.02 60.68 73.02 60.68 9.59"/><path class="cls-1" d="M69.91,72.93h3.41l3.77-20.84h14.2l3.77,20.84h3.59L86.88,9.5H81.67ZM90.84,49.39H77.63L84.28,13Z"/><polygon class="cls-1" points="127.83 73.02 127.83 70.32 110.67 70.32 110.67 9.59 106.99 9.59 106.99 70.32 106.99 73.02 110.67 73.02 127.83 73.02"/><polygon class="cls-1" points="137.36 9.59 133.67 9.59 133.67 70.32 133.67 73.02 137.36 73.02 154.52 73.02 154.52 70.32 137.36 70.32 137.36 9.59"/><polygon class="cls-1" points="164.04 40.41 179.4 40.41 179.4 37.71 164.04 37.71 164.04 12.29 183.08 12.29 183.08 9.59 160.35 9.59 160.35 73.02 163.14 73.02 164.04 73.02 183.44 73.02 183.44 70.32 164.04 70.32 164.04 40.41"/><polygon class="cls-1" points="202.49 44.9 214.71 9.59 211.11 9.59 200.69 39.69 190.27 9.59 186.59 9.59 198.9 44.9 198.9 73.02 202.49 73.02 202.49 44.9"/><path class="cls-1" d="M232.94,88h1.39l.65-1.53h2.76l.65,1.53h1.39l-2.95-6.89h-.94Zm4.29-2.71h-1.75l.87-2Z"/><path class="cls-1" d="M247.55,81.61a2.18,2.18,0,0,0-1.55-.48h-2.34V88h2.68a2.4,2.4,0,0,0,1.81-.62,2.12,2.12,0,0,0,.63-1.49,2,2,0,0,0-1-1.76,1.79,1.79,0,0,0,.44-1.15A1.86,1.86,0,0,0,247.55,81.61Zm-2.56.7h.93a.9.9,0,0,1,.74.25.7.7,0,0,1,.2.49.72.72,0,0,1-.2.49.9.9,0,0,1-.74.25H245Zm2.21,4.22a1.08,1.08,0,0,1-.88.31H245V85h1.33a1.11,1.11,0,0,1,.88.3.91.91,0,0,1,.25.63A.89.89,0,0,1,247.2,86.53Z"/><path class="cls-1" d="M254.77,83.05a1.93,1.93,0,0,0-.61-1.41,2.08,2.08,0,0,0-1.5-.51h-2.51V88h1.33V85H252l2.45,3h1.64l-2.58-3.16a1.8,1.8,0,0,0,.69-.4A1.93,1.93,0,0,0,254.77,83.05Zm-1.52.53a.82.82,0,0,1-.67.21h-1.1V82.31h1.1a.81.81,0,0,1,.67.22.77.77,0,0,1,.2.53A.78.78,0,0,1,253.25,83.58Z"/><path class="cls-1" d="M256.2,84.57A3.59,3.59,0,1,0,259.79,81,3.48,3.48,0,0,0,256.2,84.57Zm5.85,0a2.27,2.27,0,1,1-2.26-2.36A2.29,2.29,0,0,1,262.05,84.57Z"/><path class="cls-1" d="M264.65,84.57A3.6,3.6,0,1,0,268.24,81,3.49,3.49,0,0,0,264.65,84.57Zm5.86,0a2.27,2.27,0,1,1-2.27-2.36A2.3,2.3,0,0,1,270.51,84.57Z"/><polygon class="cls-1" points="273.26 81.13 273.26 88.02 274.59 88.02 274.59 84.63 277.61 88.02 279.31 88.02 275.91 84.28 278.94 81.13 277.19 81.13 274.59 83.89 274.59 81.13 273.26 81.13"/><polygon class="cls-1" points="284.57 82.31 284.57 81.13 280.44 81.13 280.44 88.02 281.76 88.02 281.76 84.92 283.88 84.92 283.88 83.74 281.76 83.74 281.76 82.31 284.57 82.31"/><rect class="cls-1" x="285.89" y="81.13" width="1.33" height="6.89"/><polygon class="cls-1" points="293.37 86.84 290.47 86.84 290.47 84.92 292.58 84.92 292.58 83.74 290.47 83.74 290.47 82.31 293.27 82.31 293.27 81.13 289.14 81.13 289.14 88.02 293.37 88.02 293.37 86.84"/><polygon class="cls-1" points="294.89 81.13 294.89 88.02 299.12 88.02 299.12 86.84 296.22 86.84 296.22 81.13 294.89 81.13"/><path class="cls-1" d="M302.66,81.13H300.5V88h2.16a3.81,3.81,0,0,0,2.37-.65,3.54,3.54,0,0,0,0-5.59A3.81,3.81,0,0,0,302.66,81.13Zm1.91,4.94a2.1,2.1,0,0,1-1.76.77h-1V82.31h1a2.1,2.1,0,0,1,1.76.77,2.35,2.35,0,0,1,.5,1.49A2.38,2.38,0,0,1,304.57,86.07Z"/><path class="cls-1" d="M310.77,81.13V88h1.33V85.21h1.26a2.24,2.24,0,0,0,1.79-.61,2,2,0,0,0,.54-1.42,2,2,0,0,0-.54-1.43,2.26,2.26,0,0,0-1.79-.62Zm3.59,2.05a.82.82,0,0,1-.22.58,1.08,1.08,0,0,1-.84.27h-1.2V82.31h1.2a1,1,0,0,1,.84.28A.82.82,0,0,1,314.36,83.18Z"/><polygon class="cls-1" points="317.02 81.13 317.02 88.02 321.25 88.02 321.25 86.84 318.35 86.84 318.35 81.13 317.02 81.13"/><path class="cls-1" d="M322.28,88h1.38l.65-1.53h2.77l.65,1.53h1.39l-3-6.89h-.93Zm4.29-2.71h-1.75l.87-2Z"/><path class="cls-1" d="M333.16,88.12a3.61,3.61,0,0,0,2.89-1.32l-.92-.82a2.4,2.4,0,0,1-1.94,1,2.33,2.33,0,0,1-2.36-2.37,2.3,2.3,0,0,1,2.3-2.36,2.36,2.36,0,0,1,1.67.71l.86-.9a3.55,3.55,0,0,0-2.52-1,3.55,3.55,0,1,0,0,7.09Z"/><polygon class="cls-1" points="341.61 88.02 341.61 86.84 338.7 86.84 338.7 84.92 340.82 84.92 340.82 83.74 338.7 83.74 338.7 82.31 341.51 82.31 341.51 81.13 337.37 81.13 337.37 88.02 341.61 88.02"/><path class="cls-1" d="M274.69,9.57h-6.95V73h6.95Z"/><path class="cls-1" d="M232.89,9.69V72.93h6.81V43.84l3.36,0,10.09,29.05h8.16c-.52-1.39-11.5-29.16-11.5-29.16a24.18,24.18,0,0,0,5.07-3c2.06-1.85,3.28-5,3.43-8.35.2-4.6.62-6.09.42-10.69-.25-6-4.25-11.25-9.89-12C243.65,9.19,232.89,9.69,232.89,9.69ZM251,20.36a7,7,0,0,1,.74,2.92,32.83,32.83,0,0,1-.41,9.44,6.19,6.19,0,0,1-2.66,4,6.47,6.47,0,0,1-3.53,1.12h-5.31l-.16-21.34a29.41,29.41,0,0,1,7.23.25A6.53,6.53,0,0,1,251,20.36Z"/><path class="cls-1" d="M336.1,9.56c-3.71,0-7.38,0-11,0h-7.56V37.91q0,14,0,28v7h24.05V66.09H325V43.32h12.51V36.4H325v-20h16.13V9.56Z"/><path class="cls-1" d="M283.41,20.47c-1.15,7.44.95,13.72,6.62,18.76,3,2.7,6.39,5.1,9,8.2a16.54,16.54,0,0,1,2.85,15.21c-.4,1.09-2.25,4.38-4.85,4.45-4.75.14-6.2-4.35-6.64-6-.57-2.17-.5-8.27-.5-8.27l-4.39,0h-2.62c0,.06-.63,9.76,2.37,14.88,4.2,7.16,11,7.19,15.87,5.6,5.48-1.78,7.94-6.76,8.72-12.14,1.24-8.57-1.31-15.86-7.89-21.63-2.78-2.44-5.65-4.79-8.26-7.4-3.36-3.36-4.12-9.39-2-13.63a4.85,4.85,0,0,1,4.76-2.94c7.13.11,5.36,12.8,5.63,12.8l7.29.06s.64-8-2.22-13.43a11.1,11.1,0,0,0-9.75-6.29C290,8.29,284.59,12.85,283.41,20.47Z"/><path class="cls-2" d="M59.51,28.62,1.75,54.26V67.1L64.56,37.54A5.13,5.13,0,0,0,62.23,28a5,5,0,0,0-2.72.66"/></svg>